<?xml version="1.0" encoding="utf-8"?>
<svg version="1.1" style="display: none;">
	<symbol  viewBox="0 0 100 100" id="mail">
		<path id="mail" d="M0,0v20h25V0H0z M22,2c-2.7,3-4.4,5-7.1,8c-1.1,1.1-2.8,1.1-4-0.1L3,2H22z M2,4c2,2,4,4,6,6c-2,2-4,4-6,6
			V4z M3,18l6.5-6.5c1.7,1.7,5,1.6,6.6,0c2,2,3.9,4.5,5.9,6.5H3z M17.7,10.1C19.3,8.1,21.3,6,23,4l0.1,12
			C21.1,14,19.7,12.1,17.7,10.1z"/>
	</symbol>
	<symbol  viewBox="0 0 100 100" id="mark">
		<g>
			<path d="M14.5,7.3c0,5.1-7.3,12.8-7.3,12.8S0,12.5,0,7.3C0,3.2,3.2,0,7.3,0S14.5,3.2,14.5,7.3z"/>
			<circle id="XMLID_30_" class="st0" cx="7.3" cy="7.2" r="4"/>
		</g>
	</symbol>
</svg>
