<?xml version="1.0" encoding="utf-8"?>
<!-- Generator: Adobe Illustrator 19.0.0, SVG Export Plug-In . SVG Version: 6.00 Build 0)  -->
<svg version="1.1" id="mail" xmlns="http://www.w3.org/2000/svg" xmlns:xlink="http://www.w3.org/1999/xlink" x="0px" y="0px"
	 viewBox="0 0 25 20" style="enable-background:new 0 0 25 20;" xml:space="preserve">
<g id="XMLID_27_">
	<g id="XMLID_54_">
		<path id="XMLID_55_" d="M0,0v20h25V0H0z M22,2c-2.7,3-4.4,5-7.1,8c-1.1,1.1-2.8,1.1-4-0.1L3,2H22z M2,4c2,2,4,4,6,6c-2,2-4,4-6,6
			V4z M3,18l6.5-6.5c1.7,1.7,5,1.6,6.6,0c2,2,3.9,4.5,5.9,6.5H3z M17.7,10.1C19.3,8.1,21.3,6,23,4l0.1,12
			C21.1,14,19.7,12.1,17.7,10.1z"/>
	</g>
</g>
</svg>
