<?xml version="1.0" encoding="utf-8"?>
<!-- Generator: Adobe Illustrator 19.0.0, SVG Export Plug-In . SVG Version: 6.00 Build 0)  -->
<svg version="1.1" id="Layer_1" xmlns="http://www.w3.org/2000/svg" xmlns:xlink="http://www.w3.org/1999/xlink" x="0px" y="0px"
	 viewBox="0 0 25 25" style="enable-background:new 0 0 25 25;" xml:space="preserve">
<g id="XMLID_3_">
	<path id="XMLID_4_" d="M8.4,6.7c0,0.5-0.2,0.9-0.5,1.2C7.6,8.3,7.1,8.5,6.5,8.5h0C6,8.5,5.5,8.3,5.2,8C4.8,7.7,4.7,7.2,4.7,6.7
		c0-0.5,0.2-0.9,0.5-1.3C5.5,5.2,6,5,6.6,5s1,0.2,1.4,0.5C8.3,5.8,8.4,6.2,8.4,6.7z M8.2,9.9V20H4.8V9.9H8.2z M20.3,14.2V20H17v-5.4
		c0-0.7-0.1-1.3-0.4-1.7c-0.3-0.4-0.7-0.6-1.3-0.6c-0.4,0-0.8,0.1-1.1,0.4c-0.3,0.2-0.5,0.5-0.6,0.9c-0.1,0.2-0.1,0.5-0.1,0.8V20
		h-3.4c0-2.7,0-4.9,0-6.6c0-1.7,0-2.7,0-3l0-0.5h3.4v1.5h0c0.1-0.2,0.3-0.4,0.4-0.6c0.1-0.2,0.3-0.3,0.6-0.5
		c0.2-0.2,0.5-0.3,0.9-0.4c0.4-0.1,0.7-0.2,1.2-0.2c1.2,0,2.1,0.4,2.8,1.2C20,11.6,20.3,12.7,20.3,14.2z"/>
</g>
<path id="XMLID_2_" d="M24,1v23H1V1H24 M25,0H0v25h25V0L25,0z"/>
</svg>
